<?xml version="1.0" encoding="utf-8"?>
<!-- Generator: Adobe Illustrator 18.1.1, SVG Export Plug-In . SVG Version: 6.00 Build 0)  -->
<svg version="1.1" id="Layer_1" xmlns="http://www.w3.org/2000/svg" xmlns:xlink="http://www.w3.org/1999/xlink" x="0px" y="0px"
	 viewBox="0 0 166.4 95.5" enable-background="new 0 0 166.4 95.5" xml:space="preserve">
<rect x="3.1" y="3.1" fill="#ED5851" width="160" height="89.8"/>
<polyline fill="none" stroke="#FFFFFF" stroke-miterlimit="10" points="11.6,17 11.6,11.4 19.1,11.4 "/>
<polyline fill="none" stroke="#FFFFFF" stroke-miterlimit="10" points="153.8,17 153.8,11.4 146.4,11.4 "/>
<polyline fill="none" stroke="#FFFFFF" stroke-miterlimit="10" points="11.6,78.9 11.6,84.5 19.1,84.5 "/>
<polyline fill="none" stroke="#FFFFFF" stroke-miterlimit="10" points="153.8,78.9 153.8,84.5 146.4,84.5 "/>
<g>
	<path fill="#FFFFFF" d="M52.2,53.8c-1.5-2.4-2.2-3.2-4.6-3.2h-3.6v12.1h-4.3v-28h4.3v11.7h3.2c2.4,0,3.1-0.8,4.6-3.2l5.4-8.5h4.9
		L56,44.6c-1.6,2.4-2.5,3.3-3.5,3.8c1.2,0.4,2.1,1.4,3.8,4l6.6,10.3H58L52.2,53.8z"/>
	<path fill="#FFFFFF" d="M72.4,62.7V34.9h4.6v27.8H72.4z"/>
	<path fill="#FFFFFF" d="M97.9,62.7l-11.6-28H91l8.1,20l8-20h4.8l-11.6,28H97.9z"/>
	<path fill="#FFFFFF" d="M121.4,62.7V34.9h4.6v27.8H121.4z"/>
</g>
</svg>
